<svg width="393" height="340" viewBox="0 0 393 340" fill="none" xmlns="http://www.w3.org/2000/svg">
<path fill-rule="evenodd" clip-rule="evenodd" d="M356.132 37.867C356.132 41.077 357.558 44.1087 360.412 45.5353C370.22 50.5287 376.462 60.1587 378.958 70.8587C384.308 92.972 392.333 136.842 392.333 197.297V284.859C392.296 297.245 388.086 309.257 380.384 318.957C372.682 328.658 361.936 335.48 349.88 338.324C337.825 341.168 325.163 339.867 313.938 334.632C302.712 329.397 293.578 320.532 288.008 309.469L256.622 246.874C254.594 243.017 251.329 239.953 247.351 238.174C243.373 236.396 238.913 236.005 234.687 237.065C224.522 239.384 210.433 241.88 196.167 241.88C181.9 241.88 167.633 239.384 157.647 237.065C148.908 235.104 139.813 238.849 135.712 246.874L104.325 309.469C98.7556 320.532 89.6212 329.397 78.3957 334.632C67.1702 339.867 54.5083 341.168 42.4529 338.324C30.3975 335.48 19.6517 328.658 11.9495 318.957C4.24723 309.257 0.0376638 297.245 0 284.859V197.297C0 137.02 8.20333 92.972 13.375 70.6803C16.05 59.9803 22.1133 50.5287 31.9217 45.7137C33.3027 44.9428 34.4375 43.7969 35.1949 42.4084C35.9522 41.0199 36.3013 39.4455 36.2017 37.867C36.2017 25.3837 44.7617 14.327 57.6017 11.652L109.853 0.59533C118.77 -1.188 127.687 1.66533 134.107 7.72866C140.348 13.792 148.017 20.3903 156.933 19.8553C183.071 18.4973 209.262 18.4973 235.4 19.8553C244.317 20.3903 251.985 13.792 258.227 7.55033C264.468 1.66533 273.563 -1.36634 282.48 0.59533L334.91 11.652C347.393 14.327 356.132 25.562 356.132 37.867ZM338.833 99.2137C338.833 106.308 336.015 113.112 330.998 118.129C325.982 123.145 319.178 125.964 312.083 125.964C304.989 125.964 298.185 123.145 293.168 118.129C288.152 113.112 285.333 106.308 285.333 99.2137C285.333 92.1191 288.152 85.3152 293.168 80.2986C298.185 75.282 304.989 72.4637 312.083 72.4637C319.178 72.4637 325.982 75.282 330.998 80.2986C336.015 85.3152 338.833 92.1191 338.833 99.2137ZM258.583 179.464C265.678 179.464 272.482 176.645 277.498 171.629C282.515 166.612 285.333 159.808 285.333 152.714C285.333 145.619 282.515 138.815 277.498 133.799C272.482 128.782 265.678 125.964 258.583 125.964C251.489 125.964 244.685 128.782 239.668 133.799C234.652 138.815 231.833 145.619 231.833 152.714C231.833 159.808 234.652 166.612 239.668 171.629C244.685 176.645 251.489 179.464 258.583 179.464ZM71.3333 90.297C71.3333 85.5673 73.2122 81.0313 76.5566 77.6869C79.901 74.3425 84.437 72.4637 89.1667 72.4637C93.8964 72.4637 98.4323 74.3425 101.777 77.6869C105.121 81.0313 107 85.5673 107 90.297V108.13H124.833C129.563 108.13 134.099 110.009 137.443 113.354C140.788 116.698 142.667 121.234 142.667 125.964C142.667 130.693 140.788 135.229 137.443 138.574C134.099 141.918 129.563 143.797 124.833 143.797H107V161.63C107 166.36 105.121 170.896 101.777 174.24C98.4323 177.585 93.8964 179.464 89.1667 179.464C84.437 179.464 79.901 177.585 76.5566 174.24C73.2122 170.896 71.3333 166.36 71.3333 161.63V143.797H53.5C48.7703 143.797 44.2343 141.918 40.8899 138.574C37.5455 135.229 35.6667 130.693 35.6667 125.964C35.6667 121.234 37.5455 116.698 40.8899 113.354C44.2343 110.009 48.7703 108.13 53.5 108.13H71.3333V90.297Z" fill="currentColor"/>
</svg>
